<svg width="24" height="24" viewBox="0 0 24 24" fill="none" xmlns="http://www.w3.org/2000/svg">
<g clip-path="url(#clip0_0_134)">
<path fill-rule="evenodd" clip-rule="evenodd" d="M16.0599 10.94C16.3408 11.2212 16.4985 11.6025 16.4985 12C16.4985 12.3975 16.3408 12.7787 16.0599 13.06L10.4039 18.718C10.1225 18.9992 9.74086 19.1572 9.343 19.1571C9.146 19.1571 8.95094 19.1182 8.76895 19.0428C8.58697 18.9673 8.42162 18.8568 8.28236 18.7175C8.14309 18.5781 8.03263 18.4127 7.95728 18.2307C7.88194 18.0487 7.84318 17.8536 7.84323 17.6566C7.84327 17.4596 7.88212 17.2646 7.95755 17.0826C8.03298 16.9006 8.14352 16.7352 8.28286 16.596L12.8789 12L8.28286 7.40398C8.13953 7.26567 8.02518 7.10021 7.94648 6.91724C7.86778 6.73427 7.82631 6.53746 7.82448 6.3383C7.82266 6.13913 7.86052 5.94159 7.93585 5.75721C8.01119 5.57283 8.12249 5.4053 8.26326 5.2644C8.40403 5.1235 8.57146 5.01204 8.75576 4.93653C8.94007 4.86102 9.13757 4.82298 9.33674 4.82461C9.53591 4.82625 9.73276 4.86753 9.9158 4.94606C10.0988 5.02458 10.2644 5.13878 10.4029 5.28198L16.0619 10.94H16.0599Z" fill="#0092DF"/>
</g>
<defs>
<clipPath id="clip0_0_134">
<rect width="24" height="24" fill="white" transform="matrix(-1 0 0 -1 24 24)"/>
</clipPath>
</defs>
</svg>
