<svg width="48" height="48" viewBox="0 0 48 48" fill="none" xmlns="http://www.w3.org/2000/svg">
<circle cx="24" cy="24" r="24" fill="#D9D9D9"/>
<path d="M17.3332 28H21.3332C21.6868 28 22.0259 27.8595 22.276 27.6095C22.526 27.3594 22.6665 27.0203 22.6665 26.6667C22.6665 26.3131 22.526 25.9739 22.276 25.7239C22.0259 25.4738 21.6868 25.3334 21.3332 25.3334H17.3332C16.9795 25.3334 16.6404 25.4738 16.3904 25.7239C16.1403 25.9739 15.9998 26.3131 15.9998 26.6667C15.9998 27.0203 16.1403 27.3594 16.3904 27.6095C16.6404 27.8595 16.9795 28 17.3332 28ZM33.3332 14.6667H14.6665C13.6056 14.6667 12.5882 15.0881 11.8381 15.8383C11.0879 16.5884 10.6665 17.6058 10.6665 18.6667V30.6667C10.6665 31.7276 11.0879 32.745 11.8381 33.4951C12.5882 34.2453 13.6056 34.6667 14.6665 34.6667H33.3332C34.394 34.6667 35.4115 34.2453 36.1616 33.4951C36.9117 32.745 37.3332 31.7276 37.3332 30.6667V18.6667C37.3332 17.6058 36.9117 16.5884 36.1616 15.8383C35.4115 15.0881 34.394 14.6667 33.3332 14.6667ZM34.6665 30.6667C34.6665 31.0203 34.526 31.3594 34.276 31.6095C34.0259 31.8595 33.6868 32 33.3332 32H14.6665C14.3129 32 13.9737 31.8595 13.7237 31.6095C13.4736 31.3594 13.3332 31.0203 13.3332 30.6667V22.6667H34.6665V30.6667ZM34.6665 20H13.3332V18.6667C13.3332 18.3131 13.4736 17.9739 13.7237 17.7239C13.9737 17.4738 14.3129 17.3334 14.6665 17.3334H33.3332C33.6868 17.3334 34.0259 17.4738 34.276 17.7239C34.526 17.9739 34.6665 18.3131 34.6665 18.6667V20Z" fill="#3356B8"/>
</svg>
