<svg width="48" height="48" viewBox="0 0 48 48" fill="none" xmlns="http://www.w3.org/2000/svg">
<circle cx="24" cy="24" r="24" fill="#D9D9D9"/>
<path d="M32.668 12.6667L12.668 32.668L15.3293 35.3294L35.3293 15.3294L32.668 12.6667Z" fill="#3A78DB"/>
<path opacity="0.3" d="M17.3333 18.6667C18.0697 18.6667 18.6667 18.0697 18.6667 17.3333C18.6667 16.597 18.0697 16 17.3333 16C16.597 16 16 16.597 16 17.3333C16 18.0697 16.597 18.6667 17.3333 18.6667Z" fill="#3A78DB"/>
<path opacity="0.3" d="M30.6668 32C31.4032 32 32.0002 31.403 32.0002 30.6666C32.0002 29.9303 31.4032 29.3333 30.6668 29.3333C29.9304 29.3333 29.3335 29.9303 29.3335 30.6666C29.3335 31.403 29.9304 32 30.6668 32Z" fill="#3A78DB"/>
<path d="M30.6708 26.6666C31.1961 26.6672 31.7162 26.7712 32.2013 26.9727C32.6864 27.1742 33.127 27.4692 33.4981 27.841C33.8692 28.2129 34.1633 28.6541 34.3639 29.1396C34.5644 29.6251 34.6674 30.1454 34.6668 30.6706C34.6663 31.1959 34.5623 31.716 34.3608 32.2011C34.1593 32.6862 33.8642 33.1268 33.4924 33.4979C33.1206 33.869 32.6794 34.1632 32.1939 34.3637C31.7084 34.5642 31.1881 34.6672 30.6628 34.6666C29.602 34.6656 28.585 34.2431 27.8356 33.4922C27.0862 32.7414 26.6658 31.7235 26.6668 30.6626C26.6679 29.6018 27.0903 28.5848 27.8412 27.8354C28.5921 27.086 29.61 26.6656 30.6708 26.6666ZM30.6668 29.3333C30.3132 29.3333 29.9741 29.4738 29.724 29.7238C29.474 29.9739 29.3335 30.313 29.3335 30.6666C29.3335 31.0203 29.474 31.3594 29.724 31.6095C29.9741 31.8595 30.3132 32 30.6668 32C31.0205 32 31.3596 31.8595 31.6096 31.6095C31.8597 31.3594 32.0002 31.0203 32.0002 30.6666C32.0002 30.313 31.8597 29.9739 31.6096 29.7238C31.3596 29.4738 31.0205 29.3333 30.6668 29.3333ZM17.3375 13.3333C18.3984 13.3344 19.4154 13.7568 20.1648 14.5077C20.9141 15.2586 21.3346 16.2764 21.3335 17.3373C21.3324 18.3982 20.91 19.4152 20.1591 20.1646C19.4082 20.914 18.3904 21.3344 17.3295 21.3333C16.2686 21.3323 15.2516 20.9098 14.5022 20.1589C13.7528 19.408 13.3324 18.3902 13.3335 17.3293C13.3346 16.2684 13.757 15.2515 14.5079 14.5021C15.2588 13.7527 16.2766 13.3323 17.3375 13.3333ZM17.3335 16C16.9799 16 16.6407 16.1405 16.3907 16.3905C16.1406 16.6406 16.0002 16.9797 16.0002 17.3333C16.0002 17.6869 16.1406 18.0261 16.3907 18.2761C16.6407 18.5262 16.9799 18.6666 17.3335 18.6666C17.6871 18.6666 18.0263 18.5262 18.2763 18.2761C18.5264 18.0261 18.6668 17.6869 18.6668 17.3333C18.6668 16.9797 18.5264 16.6406 18.2763 16.3905C18.0263 16.1405 17.6871 16 17.3335 16Z" fill="#3A78DB"/>
</svg>
